<svg xmlns="http://www.w3.org/2000/svg" xmlns:xlink="http://www.w3.org/1999/xlink" version="1.1" enable-background="new 0 0 72 72" xml:space="preserve" width="57" height="48"><rect id="backgroundrect" width="100%" height="100%" x="0" y="0" fill="none" stroke="none" class="" style=""/><g class="currentLayer" style=""><title>Layer 1</title><path d="M54.6830444625,0 H2.1157836625 c-1.1685181,0 -2.1157837,0.9472656 -2.1157837,2.1157837 v36.4003296 c0,1.1685181 0.9472656,2.1157837 2.1157837,2.1157837 h20.071106 l-0.270813,4.03479 c0,1.213501 -0.7471924000000001,2.2927856 -1.8591309,2.6853027000000003 l-0.4562988,0.16113280000000002 V48 h17.5975952 v-0.48687740000000007 l-0.45635990000000004,-0.16113280000000002 c-1.1119385,-0.39251710000000006 -1.8591309,-1.4718018000000002 -1.8591309,-2.6853027000000003 l-0.270813,-4.03479 h20.071106 c1.1685181,0 2.1157837,-0.9472656 2.1157837,-2.1157837 V2.1157836999999997 C56.7988281625,0.9472655999999997 55.8515624625,0 54.6830444625,0 zM28.3994140625,36.7433472 c-0.8178101,0 -1.480835,-0.6629639 -1.480835,-1.480835 c0,-0.8178101 0.6630249000000001,-1.4807739 1.480835,-1.4807739 s1.480835,0.6629639 1.480835,1.4807739 C29.8802490625,36.0803833 29.217224162500003,36.7433472 28.3994140625,36.7433472 zM54.1520385625,31.117736800000003 h-51.505249 V2.1459960999999996 h51.505249 V31.117736800000003 z" id="svg_1" class=""/></g></svg>