<svg xmlns="http://www.w3.org/2000/svg" xmlns:xlink="http://www.w3.org/1999/xlink" version="1.1" style="enable-background:new 0 0 100 100;" xml:space="preserve" width="50" height="100"><rect id="backgroundrect" width="100%" height="100%" x="0" y="0" fill="none" stroke="none" class="" style=""/><title>Mobile Smpl</title><g class="currentLayer" style=""><title>Layer 1</title><g id="svg_1" class=""><path d="M49.50000076293945,7 c-0.2,-3.8 -3.2,-6.8 -7,-7 C30.60000076293945,0.1 18.700000762939453,0.1 6.8000007629394545,0 c-3.7,0.2 -6.7,3.1 -6.8,6.8 c0,28.8 0,57.6 0,86.3 c0,3.8 3.1,6.9 6.9,6.9 h35.4 c3.8,0.1 7,-2.9 7.1,-6.8 c0,-0.1 0,-0.2 0,-0.30000000000000004 V50 C49.400000762939456,35.7 49.400000762939456,21.3 49.50000076293945,7 zM17.50000076293945,4.7 h14.3 c0.4,0 0.8,0.30000000000000004 0.8,0.8 c0,0.4 -0.30000000000000004,0.8 -0.8,0.8 c0,0 0,0 0,0 H17.50000076293945 c-0.4,0 -0.8,-0.30000000000000004 -0.8,-0.8 C16.800000762939455,5 17.10000076293945,4.7 17.50000076293945,4.7 C17.50000076293945,4.7 17.50000076293945,4.7 17.50000076293945,4.7 zM24.700000762939453,97.9 c-1.4,0 -2.5,-1.1 -2.5,-2.5 S23.300000762939455,93 24.700000762939453,93 c1.4,0 2.5,1.1 2.5,2.5 c0,0 0,0 0,0 C27.200000762939453,96.8 26.10000076293945,97.9 24.700000762939453,97.9 zM47.900000762939456,91.3 H1.8000007629394545 V9.9 h46.2 L47.900000762939456,91.3 z" id="svg_2"/><circle cx="24.700000762939453" cy="95.4000015258789" r="2" id="svg_3"/></g></g></svg>